<!DOCTYPE svg PUBLIC "-//W3C//DTD SVG 1.1//EN" "http://www.w3.org/Graphics/SVG/1.1/DTD/svg11.dtd">

<!-- Uploaded to: SVG Repo, www.svgrepo.com, Transformed by: SVG Repo Mixer Tools -->
<svg width="235px" height="235px" viewBox="-51.2 -51.2 614.40 614.40" version="1.1" xmlns="http://www.w3.org/2000/svg" xmlns:xlink="http://www.w3.org/1999/xlink" fill="#ac8ad6" stroke="#ac8ad6" transform="matrix(1, 0, 0, 1, 0, 0)rotate(0)">

<g id="SVGRepo_bgCarrier" stroke-width="0">

<path transform="translate(-51.2, -51.2), scale(19.2)" d="M16,31.80731361111005C19.550525960245405,32.01647631372731,22.380171162634724,29.134928672621864,25.04427208148379,26.778543745507818C27.62823320390324,24.49304209726382,30.368900452150704,22.035856018691227,30.90099978110718,18.627448300940127C31.42763809918425,15.254021555002343,30.177304775697557,11.63379745348253,27.789572533355773,9.193287124236427C25.680443116216782,7.037537816602076,22.22090710469277,7.717174431956024,19.343321207146072,6.8143004773824C16.682597485710676,5.979469395381226,14.39998213310746,3.5107799416010916,11.683219571299876,4.139743247402761C8.855987856465319,4.794281494737311,7.234656020216683,7.597670507408517,5.600603222922867,9.995905471344784C3.809207982821526,12.625065744596068,1.4682268409183061,15.333851663486678,1.9092764985960002,18.48457473100037C2.355662930707015,21.673422073231144,5.468048978835449,23.550947255154362,7.80775723907116,25.76313474174085C10.350274563160365,28.16707761973576,12.507008011793204,31.601540254527333,16,31.80731361111005" fill="#c7daff" strokewidth="0"/>

</g>

<g id="SVGRepo_tracerCarrier" stroke-linecap="round" stroke-linejoin="round"/>

<g id="SVGRepo_iconCarrier"> <title>ai</title> <g id="Page-1" stroke-width="0.00512" fill="none" fill-rule="evenodd"> <g id="icon" fill="#8764e8" transform="translate(64.000000, 64.000000)"> <path d="M320,64 L320,320 L64,320 L64,64 L320,64 Z M171.749388,128 L146.817842,128 L99.4840387,256 L121.976629,256 L130.913039,230.977 L187.575039,230.977 L196.319607,256 L220.167172,256 L171.749388,128 Z M260.093778,128 L237.691519,128 L237.691519,256 L260.093778,256 L260.093778,128 Z M159.094727,149.47526 L181.409039,213.333 L137.135039,213.333 L159.094727,149.47526 Z M341.333333,256 L384,256 L384,298.666667 L341.333333,298.666667 L341.333333,256 Z M85.3333333,341.333333 L128,341.333333 L128,384 L85.3333333,384 L85.3333333,341.333333 Z M170.666667,341.333333 L213.333333,341.333333 L213.333333,384 L170.666667,384 L170.666667,341.333333 Z M85.3333333,0 L128,0 L128,42.6666667 L85.3333333,42.6666667 L85.3333333,0 Z M256,341.333333 L298.666667,341.333333 L298.666667,384 L256,384 L256,341.333333 Z M170.666667,0 L213.333333,0 L213.333333,42.6666667 L170.666667,42.6666667 L170.666667,0 Z M256,0 L298.666667,0 L298.666667,42.6666667 L256,42.6666667 L256,0 Z M341.333333,170.666667 L384,170.666667 L384,213.333333 L341.333333,213.333333 L341.333333,170.666667 Z M0,256 L42.6666667,256 L42.6666667,298.666667 L0,298.666667 L0,256 Z M341.333333,85.3333333 L384,85.3333333 L384,128 L341.333333,128 L341.333333,85.3333333 Z M0,170.666667 L42.6666667,170.666667 L42.6666667,213.333333 L0,213.333333 L0,170.666667 Z M0,85.3333333 L42.6666667,85.3333333 L42.6666667,128 L0,128 L0,85.3333333 Z" id="Combined-Shape"> </path> </g> </g> </g>

</svg>