<!DOCTYPE svg PUBLIC "-//W3C//DTD SVG 1.1//EN" "http://www.w3.org/Graphics/SVG/1.1/DTD/svg11.dtd">
<!-- Uploaded to: SVG Repo, www.svgrepo.com, Transformed by: SVG Repo Mixer Tools -->
<svg width="235px" height="235px" viewBox="-51.2 -51.2 614.40 614.40" version="1.1" xmlns="http://www.w3.org/2000/svg" xmlns:xlink="http://www.w3.org/1999/xlink" fill="#66db6e" stroke="#66db6e" transform="matrix(1, 0, 0, 1, 0, 0)rotate(0)">
<g id="SVGRepo_bgCarrier" stroke-width="0" transform="translate(0,0), scale(1)">
<path transform="translate(-51.2, -51.2), scale(19.2)" d="M16,31.2452053266267C18.270793326313797,31.193629848479794,19.777660676877236,28.828203555306324,21.42430257915548,27.263680367098864C22.751983564412516,26.002211382796432,23.337253716096598,24.15357429590082,24.72349472358355,22.956754900113943C26.489249065091748,21.432280416457616,29.839168991199376,21.536558461549852,30.608641311484693,19.334327049052742C31.34225236371376,17.234730661784567,29.11434219859783,15.223337375968178,28.120858281210488,13.233493193305899C27.30175706052855,11.592919279163649,26.603597386689486,9.862638127988408,25.257799379170912,8.617151355499157C23.984830970345353,7.439065709561653,22.169656758706093,7.177924509052175,20.658223914836608,6.327098370816833C19.040781279373594,5.416596473937964,17.817295555977896,3.7832735381805884,16,3.4056874612967185C14.10092657024618,3.0111100995151423,12.01214306033829,3.253643556700356,10.305942293762836,4.176167339680925C8.613955184194905,5.091005956361347,7.662503689430521,6.898858370733562,6.58835178393816,8.49446100216813C5.573985471544357,10.00125491932107,4.413936911040763,11.499436046782431,4.164715613380187,13.298673571202396C3.9206849218334043,15.060437840398635,5.265578695264362,16.685676959464306,5.207516611750735,18.46331390583199C5.125503855431127,20.974228032311245,2.4972460418126854,23.589759381587406,3.7575998139805833,25.762988364399476C4.929999050814565,27.784557274001585,8.322877277404586,26.557702916020023,10.455725521654902,27.51280458275352C12.514828032868898,28.43488248761022,13.744449872741727,31.296434593046335,16,31.2452053266267" fill="#d4d4e3" strokewidth="0"/>
</g>
<g id="SVGRepo_tracerCarrier" stroke-linecap="round" stroke-linejoin="round" stroke="#a02222" stroke-width="5.12"/>
<g id="SVGRepo_iconCarrier"> <title>ai</title> <g id="Page-1" stroke-width="0.00512" fill="none" fill-rule="evenodd"> <g id="icon" fill="#300146" transform="translate(64.000000, 64.000000)"> <path d="M320,64 L320,320 L64,320 L64,64 L320,64 Z M171.749388,128 L146.817842,128 L99.4840387,256 L121.976629,256 L130.913039,230.977 L187.575039,230.977 L196.319607,256 L220.167172,256 L171.749388,128 Z M260.093778,128 L237.691519,128 L237.691519,256 L260.093778,256 L260.093778,128 Z M159.094727,149.47526 L181.409039,213.333 L137.135039,213.333 L159.094727,149.47526 Z M341.333333,256 L384,256 L384,298.666667 L341.333333,298.666667 L341.333333,256 Z M85.3333333,341.333333 L128,341.333333 L128,384 L85.3333333,384 L85.3333333,341.333333 Z M170.666667,341.333333 L213.333333,341.333333 L213.333333,384 L170.666667,384 L170.666667,341.333333 Z M85.3333333,0 L128,0 L128,42.6666667 L85.3333333,42.6666667 L85.3333333,0 Z M256,341.333333 L298.666667,341.333333 L298.666667,384 L256,384 L256,341.333333 Z M170.666667,0 L213.333333,0 L213.333333,42.6666667 L170.666667,42.6666667 L170.666667,0 Z M256,0 L298.666667,0 L298.666667,42.6666667 L256,42.6666667 L256,0 Z M341.333333,170.666667 L384,170.666667 L384,213.333333 L341.333333,213.333333 L341.333333,170.666667 Z M0,256 L42.6666667,256 L42.6666667,298.666667 L0,298.666667 L0,256 Z M341.333333,85.3333333 L384,85.3333333 L384,128 L341.333333,128 L341.333333,85.3333333 Z M0,170.666667 L42.6666667,170.666667 L42.6666667,213.333333 L0,213.333333 L0,170.666667 Z M0,85.3333333 L42.6666667,85.3333333 L42.6666667,128 L0,128 L0,85.3333333 Z" id="Combined-Shape"> </path> </g> </g> </g>
</svg>